<svg width="60" height="60" viewBox="0 0 60 60" fill="none" xmlns="http://www.w3.org/2000/svg">
<rect width="60" height="60" rx="5" fill="#DEE5FF"/>
<path d="M25 33H27C27 34.08 28.37 35 30 35C31.63 35 33 34.08 33 33C33 31.9 31.96 31.5 29.76 30.97C27.64 30.44 25 29.78 25 27C25 25.21 26.47 23.69 28.5 23.18V21H31.5V23.18C33.53 23.69 35 25.21 35 27H33C33 25.92 31.63 25 30 25C28.37 25 27 25.92 27 27C27 28.1 28.04 28.5 30.24 29.03C32.36 29.56 35 30.22 35 33C35 34.79 33.53 36.31 31.5 36.82V39H28.5V36.82C26.47 36.31 25 34.79 25 33Z" fill="#1100AC"/>
</svg>
