<svg width="20" height="21" viewBox="0 0 20 21" fill="none" xmlns="http://www.w3.org/2000/svg">
<path d="M13.1728 9.2911L12.5957 11.0092C12.3811 11.662 12.0163 12.2554 11.5307 12.7416C11.045 13.2278 10.452 13.5932 9.79943 13.8085L8.06205 14.3856C8.00332 14.4046 7.95211 14.4417 7.9158 14.4917C7.87948 14.5416 7.85992 14.6018 7.85992 14.6635C7.85992 14.7252 7.87948 14.7854 7.9158 14.8353C7.95211 14.8852 8.00332 14.9224 8.06205 14.9414L9.79943 15.5185C10.4461 15.7337 11.0336 16.0967 11.5153 16.5788C11.997 17.0609 12.3597 17.6487 12.5744 18.2955L13.1505 20.0349C13.1689 20.0941 13.2059 20.1459 13.2558 20.1827C13.3058 20.2195 13.3663 20.2393 13.4284 20.2393C13.4904 20.2393 13.5509 20.2195 13.6009 20.1827C13.6509 20.1459 13.6878 20.0941 13.7063 20.0349L14.3047 18.3168C14.5193 17.6701 14.8817 17.0823 15.3633 16.6003C15.8448 16.1182 16.4321 15.7551 17.0786 15.5398L18.817 14.9627C18.8757 14.9437 18.9269 14.9065 18.9632 14.8566C18.9995 14.8067 19.0191 14.7465 19.0191 14.6848C19.0191 14.6231 18.9995 14.5629 18.9632 14.513C18.9269 14.463 18.8757 14.4259 18.817 14.4069L17.1009 13.8085C16.4479 13.5939 15.8546 13.2287 15.3688 12.7425C14.883 12.2562 14.5185 11.6624 14.3047 11.0092L13.7276 9.2698C13.7112 9.22697 13.685 9.18856 13.6511 9.15765C13.6173 9.12673 13.5766 9.10417 13.5325 9.09175C13.4883 9.07933 13.4419 9.07741 13.3969 9.08614C13.3518 9.09487 13.3095 9.114 13.2732 9.14201C13.2253 9.18073 13.1903 9.23206 13.1728 9.2911ZM4.62279 4.30818L4.20392 5.5567C4.04767 6.0315 3.78219 6.46302 3.42883 6.81656C3.07547 7.17009 2.64409 7.43578 2.16937 7.59227L0.905633 8.01216C0.863388 8.0264 0.826675 8.05353 0.800669 8.08974C0.774663 8.12595 0.760674 8.16941 0.760674 8.21399C0.760674 8.25857 0.774663 8.30203 0.800669 8.33824C0.826675 8.37445 0.863388 8.40158 0.905633 8.41582L2.16937 8.83673C2.63961 8.99294 3.06692 9.25673 3.41731 9.60711C3.76769 9.95749 4.03148 10.3848 4.18769 10.8551L4.60657 12.1208C4.62081 12.1631 4.64794 12.1998 4.68415 12.2258C4.72036 12.2518 4.76382 12.2658 4.8084 12.2658C4.85298 12.2658 4.89644 12.2518 4.93265 12.2258C4.96885 12.1998 4.99599 12.1631 5.01023 12.1208L5.44635 10.8713C5.60327 10.4014 5.8673 9.97447 6.21758 9.62418C6.56786 9.2739 6.9948 9.00987 7.46467 8.85296L8.72739 8.43205C8.76964 8.41781 8.80635 8.39067 8.83235 8.35447C8.85836 8.31826 8.87235 8.2748 8.87235 8.23022C8.87235 8.18564 8.85836 8.14218 8.83235 8.10597C8.80635 8.06976 8.76964 8.04262 8.72739 8.02839L7.47989 7.59227C7.00496 7.43636 6.57341 7.17086 6.22013 6.81723C5.86685 6.4636 5.60178 6.03178 5.44635 5.5567L5.02646 4.29196C5.0106 4.2502 4.98202 4.21448 4.94475 4.18985C4.90748 4.16523 4.86342 4.15295 4.81878 4.15474C4.77415 4.15654 4.73121 4.17232 4.69604 4.19985C4.66087 4.22739 4.63525 4.26529 4.62279 4.30818ZM12.5835 0.837481L12.3736 1.46225C12.296 1.69983 12.1635 1.9158 11.987 2.0927C11.8104 2.26961 11.5947 2.40247 11.3573 2.48054L10.7254 2.69048C10.7096 2.69563 10.6952 2.70445 10.6835 2.71621C10.6717 2.72798 10.6629 2.74236 10.6577 2.75819C10.6526 2.77402 10.6513 2.79083 10.6539 2.80727C10.6565 2.82371 10.6629 2.83929 10.6727 2.85276C10.6854 2.87145 10.7039 2.88537 10.7254 2.89231L11.3573 3.10226C11.5924 3.18037 11.8061 3.31226 11.9813 3.48745C12.1565 3.66264 12.2883 3.8763 12.3665 4.11142L12.5754 4.7443C12.5823 4.7658 12.5958 4.78455 12.614 4.79785C12.6323 4.81116 12.6542 4.81833 12.6768 4.81833C12.6994 4.81833 12.7214 4.81116 12.7396 4.79785C12.7578 4.78455 12.7714 4.7658 12.7782 4.7443L12.9953 4.11954C13.0734 3.88441 13.2053 3.67076 13.3805 3.49557C13.5557 3.32037 13.7693 3.18848 14.0044 3.11037L14.6363 2.90043C14.6578 2.89355 14.6766 2.88002 14.6899 2.86179C14.7032 2.84356 14.7103 2.82157 14.7103 2.79901C14.7103 2.77644 14.7032 2.75445 14.6899 2.73622C14.6766 2.71799 14.6578 2.70446 14.6363 2.69758L14.0126 2.48054C13.7749 2.4026 13.559 2.2698 13.3823 2.09289C13.2056 1.91598 13.073 1.69994 12.9953 1.46225L12.7853 0.829367C12.7774 0.808487 12.7631 0.790628 12.7445 0.778316C12.7258 0.766005 12.7038 0.759863 12.6815 0.76076C12.6592 0.761657 12.6377 0.769548 12.6201 0.783316C12.6025 0.797084 12.5897 0.816032 12.5835 0.837481Z" stroke="white" stroke-width="1.5" stroke-linecap="round" stroke-linejoin="round"/>
</svg>
