<svg width="24" height="24" viewBox="0 0 24 24" fill="none" xmlns="http://www.w3.org/2000/svg">
<path d="M17.5 7C17.5 4.2385 15.0375 2 12 2C8.9625 2 6.5 4.2385 6.5 7M5 15V22H19V15M3.5 8C3.5 7.73478 3.60536 7.48043 3.79289 7.29289C3.98043 7.10536 4.23478 7 4.5 7H19.5C19.7652 7 20.0196 7.10536 20.2071 7.29289C20.3946 7.48043 20.5 7.73478 20.5 8V14C20.5 14.2652 20.3946 14.5196 20.2071 14.7071C20.0196 14.8946 19.7652 15 19.5 15H15C14.7348 15 14.4804 14.8946 14.2929 14.7071C14.1054 14.5196 14 14.2652 14 14C14 13.7348 13.8946 13.4804 13.7071 13.2929C13.5196 13.1054 13.2652 13 13 13H11C10.7348 13 10.4804 13.1054 10.2929 13.2929C10.1054 13.4804 10 13.7348 10 14C10 14.2652 9.89464 14.5196 9.70711 14.7071C9.51957 14.8946 9.26522 15 9 15H4.5C4.23478 15 3.98043 14.8946 3.79289 14.7071C3.60536 14.5196 3.5 14.2652 3.5 14V8Z" stroke="#1100AC" stroke-width="2" stroke-linecap="round" stroke-linejoin="round"/>
<path d="M10 13H14V16H10V13Z" stroke="#1100AC" stroke-width="2" stroke-linecap="round" stroke-linejoin="round"/>
</svg>
