<svg width="11" height="11" viewBox="0 0 11 11" fill="none" xmlns="http://www.w3.org/2000/svg">
<path d="M2.22565 1.04896C2.22569 0.770775 2.33622 0.503996 2.53292 0.30729C2.72963 0.110583 2.99641 5.62087e-05 3.27459 1.42252e-05L9.95105 1.44021e-05C10.2292 5.61424e-05 10.496 0.110583 10.6927 0.30729C10.8894 0.503996 11 0.770775 11 1.04896V7.72542C10.9952 8.00046 10.8826 8.26262 10.6864 8.45543C10.4902 8.64825 10.2261 8.75629 9.95105 8.75629C9.67597 8.75629 9.41189 8.64825 9.2157 8.45543C9.0195 8.26262 8.90689 8.00046 8.90211 7.72542L8.83831 3.64536L1.79094 10.6927C1.59419 10.8895 1.32735 11 1.04911 11C0.770869 11 0.504025 10.8895 0.30728 10.6927C0.110535 10.496 4.39808e-06 10.2291 4.49757e-06 9.9509C4.586e-06 9.67266 0.110535 9.40582 0.30728 9.20907L7.35465 2.1617L3.27459 2.09791C2.99641 2.09786 2.72963 1.98734 2.53292 1.79063C2.33622 1.59392 2.22569 1.32714 2.22565 1.04896Z" fill="#1100AC"/>
</svg>
