<svg width="21" height="21" viewBox="0 0 21 21" fill="none" xmlns="http://www.w3.org/2000/svg">
<path d="M19.9174 13.0225C19.4746 14.6757 18.6045 16.1833 17.3945 17.3936C16.1844 18.604 14.6771 19.4744 13.0239 19.9176C11.3708 20.3607 9.63018 20.3609 7.97698 19.918C6.32378 19.4752 4.81628 18.605 3.60601 17.3949C2.39573 16.1848 1.52533 14.6774 1.08229 13.0242C0.639257 11.3711 0.639196 9.63043 1.08212 7.97726C1.52504 6.32409 2.39533 4.81663 3.60552 3.60643C4.81571 2.39622 6.32315 1.5259 7.97632 1.08296M20.2489 10.4996C20.2489 7.91384 19.2217 5.43398 17.3933 3.60557C15.5648 1.77716 13.085 0.749972 10.4992 0.749972V9.74963C10.4992 9.94854 10.5782 10.1393 10.7189 10.2799C10.8595 10.4206 11.0503 10.4996 11.2492 10.4996H20.2489Z" stroke="#1100AC" stroke-width="1.5"/>
</svg>
