<svg width="14" height="8" viewBox="0 0 14 8" fill="none" xmlns="http://www.w3.org/2000/svg">
<path fill-rule="evenodd" clip-rule="evenodd" d="M7.69459 7.69459C7.49897 7.89015 7.23369 8.00001 6.95708 8.00001C6.68047 8.00001 6.41519 7.89015 6.21957 7.69459L0.318462 1.79348C0.21883 1.69725 0.139361 1.58214 0.0846902 1.45488C0.0300197 1.32761 0.00124299 1.19073 3.93856e-05 1.05222C-0.00116422 0.913707 0.0252296 0.776346 0.0776802 0.648146C0.130131 0.519947 0.207588 0.403476 0.305532 0.305532C0.403477 0.207588 0.519946 0.13013 0.648146 0.0776797C0.776345 0.0252291 0.913707 -0.00116422 1.05222 3.93863e-05C1.19073 0.00124299 1.32761 0.0300197 1.45488 0.0846902C1.58214 0.139361 1.69725 0.21883 1.79348 0.318462L6.95708 5.48206L12.1207 0.318462C12.3174 0.128443 12.5809 0.0232993 12.8544 0.0256761C13.1279 0.0280528 13.3896 0.13776 13.583 0.331169C13.7764 0.524577 13.8861 0.786213 13.8885 1.05972C13.8909 1.33324 13.7857 1.59674 13.5957 1.79348L7.69459 7.69459Z" fill="white"/>
</svg>
